<?xml version="1.0" encoding="utf-8"?>
<!-- Generator: Adobe Illustrator 24.0.1, SVG Export Plug-In . SVG Version: 6.00 Build 0)  -->
<svg version="1.1" id="Layer_1" xmlns="http://www.w3.org/2000/svg" xmlns:xlink="http://www.w3.org/1999/xlink" x="0px" y="0px"
	 viewBox="0 0 33.56 19.58" style="enable-background:new 0 0 33.56 19.58;" xml:space="preserve">
<style type="text/css">
	.st0{clip-path:url(#SVGID_2_);}
	.st1{clip-path:url(#SVGID_2_);fill:#E1001F;}
	.st2{clip-path:url(#SVGID_2_);fill:#F6D928;}
	.st3{display:none;clip-path:url(#SVGID_2_);}
	.st4{display:inline;}
	.st5{display:inline;clip-path:url(#SVGID_4_);fill:#F6D728;}
	.st6{display:inline;clip-path:url(#SVGID_4_);}
	.st7{display:inline;clip-path:url(#SVGID_4_);fill:#CA001C;}
	.st8{display:inline;clip-path:url(#SVGID_4_);fill:#F0F7FF;}
	.st9{fill:#F6D728;}
</style>
<g id="GERMANY_2_">
	<g>
		<g>
			<defs>
				<rect id="SVGID_1_" x="0" width="33.56" height="19.58"/>
			</defs>
			<clipPath id="SVGID_2_">
				<use xlink:href="#SVGID_1_"  style="overflow:visible;"/>
			</clipPath>
			<rect x="0" class="st0" width="33.56" height="6.52"/>
			<rect x="0" y="6.52" class="st1" width="33.56" height="6.53"/>
			<rect x="0" y="13.05" class="st2" width="33.56" height="6.53"/>
			<g class="st3">
				<defs>
					<rect id="SVGID_3_" x="0" width="33.56" height="19.58"/>
				</defs>
				<clipPath id="SVGID_4_" class="st4">
					<use xlink:href="#SVGID_3_"  style="overflow:visible;"/>
				</clipPath>
				<path class="st5" d="M12.14,4.63v7.84c0,2.94,3.94,2.58,4.64,3.75c0.7-1.17,4.65-0.82,4.65-3.75V4.63H12.14z"/>
				<g class="st6">
					<path d="M16.78,16.28l-0.02-0.04c-0.25-0.41-0.91-0.63-1.68-0.89c-1.32-0.44-2.97-0.99-2.97-2.88V4.61h9.35v7.86
						c0,1.89-1.65,2.44-2.97,2.88c-0.77,0.26-1.43,0.47-1.68,0.89L16.78,16.28L16.78,16.28z M12.16,4.66v7.81
						c0,1.85,1.56,2.37,2.93,2.83c0.75,0.25,1.41,0.47,1.68,0.88c0.28-0.41,0.93-0.62,1.69-0.88c1.37-0.46,2.93-0.97,2.93-2.83V4.66
						H12.16L12.16,4.66z"/>
				</g>
				<path class="st6" d="M16.48,5.76c0.05,0.23-0.05,0.79-0.16,0.98c-0.12,0.19-0.42,0.54-0.45,0.89c-0.12,1.76,0.54,4.32,0.91,6.15
					c0.38-1.83,1.03-4.38,0.92-6.15c-0.12-1.76-0.35-2.23-0.35-2.23L16.48,5.76z"/>
				<path class="st7" d="M16.57,6.02c-0.44-0.03-0.8-0.12-1.1-0.26c0.13,0.15,0.41,0.28,0.85,0.37L16.57,6.02z"/>
				<g class="st6">
					<path d="M16.32,6.12c-0.45-0.07-0.73-0.19-0.86-0.35c0.31,0.12,0.68,0.2,1.12,0.23l0,0.03C16.13,6,15.76,5.91,15.46,5.77
						C15.6,5.9,15.88,6.03,16.32,6.12L16.32,6.12z"/>
				</g>
				<path class="st7" d="M16.43,5.05c-0.7-0.35-1.13,0.05-0.66,0.68c0.05-0.12,0.49-0.28,0.7,0.28c-0.11,0.06-0.37,0.07-0.77,0.02
					c0.21,0.16,0.84,0.19,0.96,0.12c0.12-0.07-0.21-0.66-0.21-0.66L16.43,5.05z"/>
				<g class="st6">
					<path d="M16.4,6.21c-0.24,0-0.56-0.05-0.7-0.16c0.41,0.02,0.67,0.02,0.78-0.05c-0.13-0.31-0.33-0.37-0.44-0.37c0,0,0,0,0,0
						c-0.13,0-0.22,0.06-0.24,0.11c-0.24-0.28-0.28-0.55-0.15-0.71c0.14-0.17,0.45-0.17,0.8,0.01l-0.01,0.03
						c-0.33-0.17-0.63-0.17-0.77-0.01c-0.12,0.14-0.08,0.4,0.13,0.67c0-0.06,0.12-0.12,0.25-0.12c0.12,0,0.33,0.05,0.46,0.41
						c-0.12,0.08-0.38,0.09-0.79,0.04c0.21,0.13,0.84,0.16,0.96,0.09c0.08-0.05-0.09-0.41-0.22-0.64c0.08,0.09,0.36,0.59,0.23,0.66
						C16.63,6.2,16.52,6.21,16.4,6.21L16.4,6.21z"/>
				</g>
				<path class="st6" d="M17.3,5.55c0.12-0.02,0.3-0.09,0.45-0.23c-0.26,0-0.73-0.14-0.92-0.24c-0.19-0.1-0.51-0.3-0.51,0.09
					c0,0.4,0.42,0.71,0.35,1.03L17.3,5.55z"/>
				<path class="st8" d="M16.71,5.29c0,0-0.24-0.12-0.28-0.16c-0.05-0.05-0.12,0.26,0.09,0.35C16.55,5.4,16.62,5.34,16.71,5.29
					L16.71,5.29z"/>
				<path class="st6" d="M16.55,5.15c-0.11,0.03-0.13,0.12-0.07,0.26c0.02-0.11,0.09-0.18,0.24-0.21L16.55,5.15z"/>
				<path class="st6" d="M17.81,8.34v2.77l3.14,2.58V6.81c0-0.53-0.11-0.89-0.33-1.08v1.43L17.81,8.34z"/>
				<g class="st6">
					<polygon class="st9" points="18.45,13.38 18.36,13.38 18.36,7.52 18.45,7.52 18.45,13.38 					"/>
				</g>
				<g class="st6">
					<polygon class="st9" points="19.1,13.38 19.01,13.38 19.01,7.52 19.1,7.52 19.1,13.38 					"/>
				</g>
				<g class="st6">
					<polygon class="st9" points="19.76,13.38 19.67,13.38 19.67,7.52 19.76,7.52 19.76,13.38 					"/>
				</g>
				<g class="st6">
					<polygon class="st9" points="20.42,13.38 20.33,13.38 20.33,7.52 20.42,7.52 20.42,13.38 					"/>
				</g>
				<path class="st6" d="M17.2,8.86c2.11,0,3-0.68,3.45-1.2v-1.9c0.23-0.07,0.36-0.24,0.38-0.52c-0.66,0.54-1.69-0.73-2.3,0.59
					c0.33,0.66,0.99,0.59,1.22,0.21c0.47,0.4,0.09,1.9-2.75,1.88V8.86z"/>
				<path class="st7" d="M17.98,13.45c-0.16,0.21-0.02,0.4,0.12,0.47c-0.05-0.14-0.02-0.27,0.07-0.4L17.98,13.45z"/>
				<g class="st6">
					<path d="M18.11,13.92c-0.1-0.02-0.19-0.1-0.21-0.21c-0.02-0.08,0-0.18,0.07-0.26l0.02,0.02c-0.06,0.08-0.08,0.16-0.06,0.24
						c0.03,0.1,0.11,0.18,0.18,0.21c-0.07-0.13-0.04-0.26,0.05-0.39C18.09,13.66,18.07,13.78,18.11,13.92L18.11,13.92z"/>
				</g>
				<path class="st7" d="M18.8,14.25c0.01,0.09-0.03,0.21-0.14,0.35c0.28-0.07,0.4-0.17,0.3-0.33L18.8,14.25z"/>
				<g class="st6">
					<path d="M18.66,14.62c0.09-0.16,0.14-0.27,0.12-0.36l0.03,0C18.83,14.35,18.78,14.47,18.66,14.62c0.18-0.08,0.28-0.13,0.31-0.2
						c0.02-0.04,0.01-0.08-0.02-0.14c0.06,0.05,0.07,0.1,0.05,0.15C18.97,14.51,18.86,14.57,18.66,14.62L18.66,14.62z"/>
				</g>
				<path class="st7" d="M19.74,13.9c0.05,0.11,0.06,0.24,0.03,0.38c0.21-0.19,0.28-0.45,0.12-0.49L19.74,13.9z"/>
				<g class="st6">
					<path d="M19.77,14.29c0-0.15,0-0.28-0.05-0.38l0.03-0.01C19.8,14.01,19.81,14.14,19.77,14.29c0.12-0.14,0.2-0.31,0.18-0.41
						c-0.01-0.04-0.04-0.07-0.08-0.08c0.06-0.02,0.09,0.02,0.11,0.07C20.01,13.98,19.92,14.15,19.77,14.29L19.77,14.29z"/>
				</g>
				<path class="st7" d="M19.71,13.06c0.08,0.02,0.16,0.09,0.23,0.23c0.02-0.26-0.02-0.4-0.26-0.45L19.71,13.06z"/>
				<g class="st6">
					<path d="M19.96,13.29c-0.1-0.13-0.18-0.21-0.25-0.22l0.01-0.03C19.8,13.06,19.88,13.14,19.96,13.29c0-0.28-0.07-0.39-0.28-0.43
						C19.95,12.88,19.99,13.05,19.96,13.29L19.96,13.29z"/>
				</g>
				<path class="st7" d="M17.65,12.28l1.1,1.01c0,0-0.42,0.09-0.59,0.09c-0.17,0-0.31,0.05-0.26,0.1c0.05,0.05,0.14,0.05,0.19,0.12
					c0.05,0.07,0.12,0.17,0.21,0.07c0.09-0.09,0.42-0.19,0.42-0.19s0,0.54-0.02,0.61c-0.02,0.07-0.09,0.21-0.05,0.21
					c0.05,0,0.05-0.02,0.24,0c0.19,0.03,0.16,0.07,0.12-0.21c-0.05-0.28-0.02-0.58-0.02-0.58s0.42,0.28,0.56,0.47
					c0.14,0.19,0.12,0.05,0.19-0.03c0.07-0.07,0.16-0.09,0.24-0.12c0.07-0.02-0.19-0.1-0.26-0.14c-0.07-0.05-0.61-0.35-0.61-0.35
					s0.3-0.09,0.49-0.12c0.19-0.02,0.19-0.02,0.17-0.12c-0.03-0.09,0-0.19,0-0.23s-0.03-0.09-0.14,0c-0.12,0.09-0.66,0.33-0.66,0.33
					l-0.92-1.22L17.65,12.28z"/>
				<g class="st6">
					<path d="M19.02,14.33c-0.01,0-0.03,0-0.05-0.01l-0.07-0.01c-0.13-0.02-0.17-0.01-0.2-0.01l-0.06-0.01
						c-0.02-0.02,0-0.08,0.04-0.16l0.02-0.06c0.02-0.05,0.02-0.45,0.02-0.61c-0.01,0.02-0.31,0.11-0.4,0.2
						c-0.03,0.03-0.06,0.05-0.1,0.04c-0.06,0-0.1-0.06-0.14-0.11c-0.02-0.04-0.06-0.05-0.1-0.07c-0.03-0.01-0.06-0.02-0.08-0.04
						l-0.01-0.01l0-0.04c0.02-0.05,0.16-0.08,0.28-0.08c0.16,0,0.58-0.09,0.58-0.09l-1.11-0.98l0.02-0.02l1.1,1.01
						c-0.02,0.03-0.43,0.12-0.6,0.12c-0.14,0-0.24,0.04-0.25,0.06c0.02,0.03,0.05,0.04,0.08,0.05c0.04,0.02,0.09,0.04,0.12,0.08
						c0.03,0.05,0.07,0.1,0.11,0.1c0.03,0,0.05-0.01,0.07-0.03c0.1-0.1,0.42-0.19,0.43-0.19c0.02,0.04,0.02,0.56-0.01,0.63
						l-0.02,0.06c-0.02,0.04-0.05,0.12-0.04,0.13c0.06-0.01,0.1-0.02,0.24,0l0.07,0.01c0.03,0,0.05,0.01,0.06,0
						c0.01-0.01,0-0.05-0.01-0.11L19,14.09c-0.05-0.28-0.03-0.59-0.02-0.59c0.04,0,0.45,0.28,0.59,0.46
						c0.05,0.07,0.07,0.08,0.09,0.09c0.01,0,0.02-0.02,0.03-0.04c0.01-0.02,0.03-0.05,0.05-0.07c0.06-0.06,0.15-0.09,0.21-0.11
						c0.02-0.01-0.05-0.04-0.1-0.06c-0.05-0.02-0.11-0.04-0.13-0.06c-0.07-0.05-0.61-0.35-0.61-0.35c0.01-0.03,0.31-0.12,0.5-0.14
						c0.1-0.01,0.15-0.02,0.16-0.04c0.01-0.01,0-0.03-0.01-0.07c-0.02-0.07-0.01-0.14,0-0.19c0-0.02,0-0.04,0-0.05
						c-0.02-0.04-0.05-0.04-0.12,0.01c-0.12,0.1-0.64,0.32-0.66,0.33l-0.93-1.22l0.94,1.2c0-0.01,0.52-0.24,0.64-0.33
						c0.06-0.05,0.11-0.07,0.14-0.05c0.01,0.01,0.03,0.02,0.03,0.06c0,0.01,0,0.03,0,0.05c-0.01,0.05-0.01,0.11,0,0.18
						c0.01,0.04,0.02,0.07,0,0.09c-0.02,0.03-0.06,0.03-0.18,0.04c-0.17,0.02-0.44,0.11-0.48,0.12c0.06,0,0.54,0.28,0.61,0.33
						c0.03,0.01,0.08,0.04,0.13,0.06C19.96,13.78,20,13.8,20,13.82l-0.05,0.04c-0.07,0.02-0.14,0.04-0.2,0.1
						c-0.02,0.02-0.03,0.04-0.04,0.07c-0.02,0.03-0.03,0.05-0.05,0.06c-0.03,0-0.06-0.03-0.12-0.1c-0.13-0.18-0.51-0.43-0.55-0.46
						c0.01,0.03,0,0.31,0.04,0.57l0.02,0.11c0.02,0.08,0.02,0.12,0,0.13C19.04,14.33,19.03,14.33,19.02,14.33L19.02,14.33z"/>
				</g>
				<path class="st6" d="M16.78,15.33l0.49-0.59c0.56,0.35,0.98,0.25,1.24-0.28c-0.84,0.14-1.24-0.63-1.2-2.3l0.63,0.98v-0.91
					l0.77,0.09l-2.04-2.18L16.78,15.33z"/>
				<path class="st6" d="M15.75,8.34v2.77l-3.14,2.58V6.81c0-0.53,0.11-0.89,0.33-1.08v1.43L15.75,8.34z"/>
				<g class="st6">
					<polygon class="st9" points="15.21,13.38 15.12,13.38 15.12,7.52 15.21,7.52 15.21,13.38 					"/>
				</g>
				<g class="st6">
					<polygon class="st9" points="14.55,13.38 14.46,13.38 14.46,7.52 14.55,7.52 14.55,13.38 					"/>
				</g>
				<g class="st6">
					<polygon class="st9" points="13.89,13.38 13.8,13.38 13.8,7.52 13.89,7.52 13.89,13.38 					"/>
				</g>
				<g class="st6">
					<polygon class="st9" points="13.24,13.38 13.15,13.38 13.15,7.52 13.24,7.52 13.24,13.38 					"/>
				</g>
				<path class="st6" d="M16.36,8.86c-2.11,0-3-0.68-3.45-1.2v-1.9c-0.24-0.07-0.36-0.24-0.37-0.52c0.66,0.54,1.69-0.73,2.3,0.59
					c-0.33,0.66-0.99,0.59-1.22,0.21c-0.47,0.4-0.09,1.9,2.75,1.88V8.86z"/>
				<path class="st7" d="M15.58,13.45c0.16,0.21,0.03,0.4-0.12,0.47c0.05-0.14,0.02-0.27-0.07-0.4L15.58,13.45z"/>
				<g class="st6">
					<path d="M15.47,13.94c0.03-0.15,0-0.28-0.09-0.4C15.5,13.65,15.53,13.78,15.47,13.94c0.06-0.06,0.14-0.13,0.16-0.23
						c0.02-0.08,0-0.16-0.07-0.24l0.02-0.02c0.07,0.08,0.09,0.18,0.07,0.26C15.64,13.82,15.55,13.9,15.47,13.94L15.47,13.94z"/>
				</g>
				<path class="st7" d="M14.76,14.25c-0.01,0.09,0.03,0.21,0.14,0.35c-0.28-0.07-0.4-0.17-0.3-0.33L14.76,14.25z"/>
				<g class="st6">
					<path d="M14.92,14.6c-0.21-0.03-0.32-0.08-0.35-0.16c-0.02-0.05-0.01-0.1,0.02-0.16c0,0.07-0.01,0.11,0,0.15
						c0.03,0.07,0.13,0.12,0.32,0.17c-0.13-0.12-0.17-0.24-0.16-0.34l0.03,0C14.76,14.35,14.81,14.46,14.92,14.6L14.92,14.6z"/>
				</g>
				<path class="st7" d="M13.83,13.9c-0.05,0.11-0.05,0.24-0.02,0.38c-0.21-0.19-0.28-0.45-0.12-0.49L13.83,13.9z"/>
				<g class="st6">
					<path d="M13.82,14.27c-0.17-0.12-0.26-0.29-0.23-0.4c0.01-0.05,0.04-0.09,0.1-0.1c-0.03,0.04-0.06,0.07-0.07,0.11
						C13.59,13.98,13.67,14.14,13.82,14.27c-0.06-0.14-0.05-0.27,0-0.38l0.03,0.01C13.79,14.01,13.79,14.14,13.82,14.27L13.82,14.27
						z"/>
				</g>
				<path class="st7" d="M13.85,13.06c-0.08,0.02-0.16,0.09-0.23,0.23c-0.02-0.26,0.02-0.4,0.26-0.45L13.85,13.06z"/>
				<g class="st6">
					<path d="M13.63,13.3c-0.05-0.25-0.01-0.42,0.24-0.47C13.67,12.9,13.6,13.01,13.63,13.3c0.06-0.16,0.14-0.24,0.22-0.26
						l0.01,0.03C13.78,13.09,13.7,13.16,13.63,13.3L13.63,13.3z"/>
				</g>
				<path class="st7" d="M15.91,12.28l-1.1,1.01c0,0,0.42,0.09,0.59,0.09c0.16,0,0.3,0.05,0.26,0.1c-0.05,0.05-0.14,0.05-0.19,0.12
					c-0.05,0.07-0.12,0.17-0.21,0.07c-0.09-0.09-0.42-0.19-0.42-0.19s0,0.54,0.02,0.61c0.02,0.07,0.09,0.21,0.05,0.21
					c-0.05,0-0.05-0.02-0.23,0c-0.19,0.03-0.16,0.07-0.12-0.21c0.05-0.28,0.02-0.58,0.02-0.58s-0.42,0.28-0.56,0.47
					c-0.14,0.19-0.12,0.05-0.19-0.03c-0.07-0.07-0.16-0.09-0.23-0.12c-0.07-0.02,0.19-0.1,0.26-0.14c0.07-0.05,0.61-0.35,0.61-0.35
					s-0.3-0.09-0.49-0.12c-0.19-0.02-0.19-0.02-0.16-0.12c0.02-0.09,0-0.19,0-0.23s0.02-0.09,0.14,0c0.12,0.09,0.66,0.33,0.66,0.33
					l0.92-1.22L15.91,12.28z"/>
				<g class="st6">
					<path d="M14.54,14.33c-0.01,0-0.02,0-0.03-0.01c-0.02-0.02-0.01-0.05,0-0.13l0.02-0.11c0.04-0.26,0.03-0.55,0.02-0.58
						c-0.01,0.04-0.41,0.3-0.54,0.48c-0.05,0.07-0.09,0.1-0.12,0.1c-0.03,0-0.04-0.03-0.05-0.06c-0.01-0.02-0.02-0.05-0.04-0.06
						c-0.06-0.06-0.13-0.08-0.2-0.1l-0.05-0.04c0-0.02,0.04-0.04,0.15-0.08c0.05-0.02,0.1-0.04,0.13-0.06
						c0.06-0.05,0.54-0.31,0.6-0.35c-0.05,0-0.31-0.07-0.48-0.1c-0.12-0.01-0.16-0.02-0.18-0.04c-0.01-0.02-0.01-0.05,0-0.09
						c0.02-0.07,0.01-0.13,0-0.18c0-0.02,0-0.04,0-0.05c0-0.04,0.02-0.06,0.03-0.06c0.03-0.01,0.08,0,0.14,0.05
						c0.11,0.09,0.65,0.32,0.65,0.33l0.9-1.21l-0.89,1.24c-0.04-0.01-0.56-0.23-0.68-0.33c-0.07-0.06-0.1-0.05-0.1-0.05
						c-0.01,0.05-0.01,0.07-0.01,0.09c0.01,0.05,0.01,0.12,0,0.19c-0.01,0.04-0.01,0.06-0.01,0.07c0.01,0.02,0.06,0.02,0.16,0.04
						c0.19,0.02,0.49,0.12,0.5,0.12c0,0.03-0.54,0.33-0.61,0.38c-0.03,0.02-0.08,0.04-0.14,0.06c-0.05,0.02-0.12,0.05-0.13,0.06
						c0.09,0.02,0.18,0.05,0.24,0.11c0.02,0.02,0.04,0.05,0.05,0.07c0.01,0.02,0.02,0.04,0.03,0.04c0.02-0.01,0.04-0.02,0.09-0.09
						c0.14-0.18,0.55-0.46,0.57-0.47c0.02,0.01,0.04,0.32,0,0.6l-0.02,0.11c-0.01,0.05-0.02,0.1-0.01,0.11c0,0.01,0.03,0,0.06,0
						l0.07-0.01c0.14-0.02,0.18-0.01,0.2,0c0.04-0.01,0.01-0.09-0.01-0.13l-0.02-0.06c-0.02-0.07-0.02-0.59-0.02-0.62
						c0.03-0.01,0.35,0.08,0.45,0.18c0.02,0.03,0.05,0.04,0.07,0.03c0.04,0,0.08-0.05,0.11-0.1c0.03-0.04,0.08-0.06,0.12-0.08
						c0.03-0.01,0.06-0.02,0.07-0.04c0-0.03-0.11-0.07-0.25-0.07c-0.17,0-0.57-0.09-0.59-0.1l1.1-1.03l0.02,0.02l-1.1,1.01
						c0.04-0.01,0.42,0.07,0.58,0.07c0.12,0,0.26,0.03,0.28,0.08l0,0.01l-0.01,0.04c-0.02,0.02-0.05,0.03-0.08,0.04
						c-0.04,0.02-0.08,0.03-0.1,0.07c-0.04,0.05-0.08,0.11-0.14,0.11c-0.03,0.01-0.07-0.01-0.1-0.04c-0.09-0.09-0.41-0.19-0.41-0.19
						c0.02,0.13,0.02,0.54,0.04,0.59l0.02,0.06c0.03,0.08,0.05,0.14,0.04,0.16l-0.06,0.01c-0.03,0-0.06-0.01-0.2,0.01l-0.07,0.01
						C14.58,14.33,14.56,14.33,14.54,14.33L14.54,14.33z"/>
				</g>
				<path class="st6" d="M16.78,15.33l-0.49-0.59c-0.56,0.35-0.98,0.25-1.24-0.28c0.84,0.14,1.24-0.63,1.19-2.3l-0.63,0.98v-0.91
					l-0.78,0.09l2.04-2.18L16.78,15.33z"/>
			</g>
		</g>
	</g>
</g>
</svg>
