<?xml version="1.0" encoding="utf-8"?>
<!-- Generator: Adobe Illustrator 24.0.1, SVG Export Plug-In . SVG Version: 6.00 Build 0)  -->
<svg version="1.1" id="Layer_1" xmlns="http://www.w3.org/2000/svg" xmlns:xlink="http://www.w3.org/1999/xlink" x="0px" y="0px"
	 viewBox="0 0 33.56 19.58" style="enable-background:new 0 0 33.56 19.58;" xml:space="preserve">
<style type="text/css">
	.st0{clip-path:url(#SVGID_2_);fill:#FFFFFF;}
	.st1{clip-path:url(#SVGID_2_);fill:#BD0034;}
	.st2{clip-path:url(#SVGID_2_);fill:#1A237B;}
</style>
<g id="UNITED_KINGDOM_2_">
	<g>
		<g>
			<defs>
				<rect id="SVGID_1_" x="0" y="0" width="33.56" height="19.58"/>
			</defs>
			<clipPath id="SVGID_2_">
				<use xlink:href="#SVGID_1_"  style="overflow:visible;"/>
			</clipPath>
			<rect x="0" y="0" class="st0" width="33.56" height="19.58"/>
			<polygon class="st1" points="22.47,7.08 33.56,0.87 33.56,0 32.8,0 20.15,7.08 			"/>
			<polygon class="st1" points="21.95,12.89 33.56,19.39 33.56,18.09 24.27,12.89 			"/>
			<polygon class="st1" points="0,1.49 9.94,7.08 12.26,7.08 0,0.19 			"/>
			<polygon class="st1" points="11.73,12.89 0,19.46 0,19.58 2.12,19.58 14.05,12.89 			"/>
			<polygon class="st2" points="31.27,0 19.52,0 19.52,6.58 			"/>
			<polygon class="st2" points="14.33,0 2.62,0 14.33,6.58 			"/>
			<polygon class="st2" points="33.56,7.08 33.56,2.59 25.59,7.08 			"/>
			<polygon class="st2" points="33.56,17.34 33.56,12.89 25.59,12.89 			"/>
			<polygon class="st2" points="3.29,19.58 14.33,19.58 14.33,13.39 			"/>
			<polygon class="st2" points="19.52,19.58 30.59,19.58 19.52,13.39 			"/>
			<polygon class="st2" points="0,12.89 0,17.54 8.25,12.89 			"/>
			<polygon class="st2" points="0,7.08 8.25,7.08 0,2.43 			"/>
			<polygon class="st1" points="15.36,0 15.36,8.24 0,8.24 0,11.73 15.36,11.73 15.36,19.58 18.48,19.58 18.48,11.73 33.56,11.73 
				33.56,8.24 18.48,8.24 18.48,0 			"/>
		</g>
	</g>
</g>
</svg>
