<?xml version="1.0" encoding="utf-8"?>
<!-- Generator: Adobe Illustrator 24.0.1, SVG Export Plug-In . SVG Version: 6.00 Build 0)  -->
<svg version="1.1" id="Layer_1" xmlns="http://www.w3.org/2000/svg" xmlns:xlink="http://www.w3.org/1999/xlink" x="0px" y="0px"
	 viewBox="0 0 33.6 19.6" style="enable-background:new 0 0 33.6 19.6;" xml:space="preserve">
<style type="text/css">
	.st0{clip-path:url(#SVGID_2_);fill:#FFFFFF;}
	.st1{clip-path:url(#SVGID_2_);}
	.st2{clip-path:url(#SVGID_4_);fill:#B50037;}
	.st3{clip-path:url(#SVGID_4_);fill:#1E3476;}
</style>
<g id="KOREA_SOUTH_2_">
	<g>
		<g>
			<defs>
				<rect id="SVGID_1_" x="0" y="0" width="33.6" height="19.6"/>
			</defs>
			<clipPath id="SVGID_2_">
				<use xlink:href="#SVGID_1_"  style="overflow:visible;"/>
			</clipPath>
			<rect x="0" y="0" class="st0" width="33.6" height="19.6"/>
			<rect x="22.1" y="3.3" transform="matrix(0.8326 -0.5539 0.5539 0.8326 1.3334 13.2065)" class="st1" width="0.8" height="2.2"/>
			<rect x="23.6" y="5.5" transform="matrix(0.8316 -0.5554 0.5554 0.8316 0.3715 14.4326)" class="st1" width="0.8" height="2.2"/>
			<rect x="23.9" y="2.4" transform="matrix(0.8322 -0.5545 0.5545 0.8322 1.399 14.2655)" class="st1" width="0.8" height="4.9"/>
			<rect x="24.1" y="1.9" transform="matrix(0.8325 -0.554 0.554 0.8325 2.4278 14.1091)" class="st1" width="0.8" height="2.2"/>
			<polygon class="st1" points="25.7,4.1 27,6 26.3,6.4 25.1,4.5 			"/>
			<rect x="9.9" y="11.7" transform="matrix(0.8319 -0.5549 0.5549 0.8319 -6.0822 8.1132)" class="st1" width="0.8" height="4.9"/>
			<rect x="8.2" y="12.6" transform="matrix(0.8321 -0.5547 0.5547 0.8321 -6.1404 7.0659)" class="st1" width="0.8" height="2.2"/>
			<rect x="9.7" y="14.8" transform="matrix(0.8324 -0.5542 0.5542 0.8324 -7.1141 8.2426)" class="st1" width="0.8" height="2.2"/>
			<rect x="7.9" y="13" transform="matrix(0.8321 -0.5546 0.5546 0.8321 -7.1761 7.2069)" class="st1" width="0.8" height="4.9"/>
			
				<rect x="7.9" y="5.1" transform="matrix(0.5545 -0.8322 0.8322 0.5545 3.442872e-02 11.0648)" class="st1" width="4.9" height="0.8"/>
			<rect x="6.9" y="4.4" transform="matrix(0.5545 -0.8322 0.8322 0.5545 0.1458 9.9154)" class="st1" width="4.9" height="0.8"/>
			<rect x="5.9" y="3.7" transform="matrix(0.5542 -0.8324 0.8324 0.5542 0.2581 8.7695)" class="st1" width="4.9" height="0.8"/>
			<rect x="21.4" y="14.8" transform="matrix(0.5553 -0.8317 0.8317 0.5553 -2.63 25.4825)" class="st1" width="2.2" height="0.8"/>
			<rect x="22.9" y="12.6" transform="matrix(0.554 -0.8325 0.8325 0.554 -0.123 25.7629)" class="st1" width="2.2" height="0.8"/>
			
				<rect x="22.4" y="15.5" transform="matrix(0.5545 -0.8322 0.8322 0.5545 -2.7338 26.6572)" class="st1" width="2.2" height="0.8"/>
			<polygon class="st1" points="24,14.4 25.3,12.5 26,13 24.7,14.8 			"/>
			
				<rect x="23.4" y="16.2" transform="matrix(0.5556 -0.8315 0.8315 0.5556 -2.8582 27.7701)" class="st1" width="2.2" height="0.8"/>
			
				<rect x="24.9" y="13.9" transform="matrix(0.5542 -0.8324 0.8324 0.5542 -0.3487 28.0563)" class="st1" width="2.2" height="0.8"/>
			<g class="st1">
				<defs>
					<rect id="SVGID_3_" x="0" y="0" width="33.6" height="19.6"/>
				</defs>
				<clipPath id="SVGID_4_">
					<use xlink:href="#SVGID_3_"  style="overflow:visible;"/>
				</clipPath>
				<path class="st2" d="M12.7,7.1C12.7,7.1,12.7,7.1,12.7,7.1C12.7,7.1,12.7,7.1,12.7,7.1"/>
				<path class="st2" d="M19.5,5.7c-2.3-1.5-5.3-0.9-6.8,1.4c-0.8,1.1-0.4,2.6,0.7,3.4c1.1,0.8,2.6,0.4,3.4-0.7s2.3-1.4,3.4-0.7
					c1.1,0.8,1.4,2.3,0.7,3.4C22.4,10.3,21.8,7.2,19.5,5.7"/>
				<path class="st3" d="M12.7,7.1c-0.8,1.1-0.4,2.6,0.7,3.4c1.1,0.8,2.6,0.4,3.4-0.7s2.3-1.4,3.4-0.7c1.1,0.8,1.4,2.3,0.7,3.4
					c-1.5,2.3-4.5,2.9-6.8,1.4C11.8,12.4,11.2,9.3,12.7,7.1"/>
			</g>
		</g>
	</g>
</g>
</svg>
