<?xml version="1.0" encoding="utf-8"?>
<!-- Generator: Adobe Illustrator 24.0.1, SVG Export Plug-In . SVG Version: 6.00 Build 0)  -->
<svg version="1.1" id="Layer_1" xmlns="http://www.w3.org/2000/svg" xmlns:xlink="http://www.w3.org/1999/xlink" x="0px" y="0px"
	 viewBox="0 0 33.6 19.6" style="enable-background:new 0 0 33.6 19.6;" xml:space="preserve">
<style type="text/css">
	.st0{clip-path:url(#SVGID_2_);fill:#CB1D23;}
	.st1{clip-path:url(#SVGID_2_);fill:#F7DE29;}
</style>
<g id="CHINA_3_">
	<g>
		<g>
			<defs>
				<rect id="SVGID_1_" x="0" y="0" width="33.6" height="19.6"/>
			</defs>
			<clipPath id="SVGID_2_">
				<use xlink:href="#SVGID_1_"  style="overflow:visible;"/>
			</clipPath>
			<rect x="0" y="0" class="st0" width="33.6" height="19.6"/>
			<polygon class="st1" points="3.2,7.1 3.9,5.1 2.2,3.9 4.3,3.9 4.9,2 5.5,3.9 7.6,3.9 5.9,5.1 6.6,7.1 4.9,5.9 			"/>
			<polygon class="st1" points="8.9,8.1 9.6,8.4 10.1,7.9 10.1,8.6 10.8,8.9 10,9.1 10,9.8 9.6,9.2 8.9,9.3 9.3,8.8 			"/>
			<polygon class="st1" points="12.7,4.4 12,4.3 11.6,4.9 11.5,4.2 10.8,4 11.4,3.7 11.3,3 11.9,3.5 12.5,3.2 12.2,3.9 			"/>
			<polygon class="st1" points="11.1,7.7 11.4,7 10.8,6.6 11.5,6.6 11.7,5.9 12,6.6 12.7,6.6 12.1,7 12.3,7.7 11.7,7.3 			"/>
			<polygon class="st1" points="9,1.2 9.7,1.6 10.2,1 10.1,1.8 10.8,2.1 10,2.2 9.9,3 9.6,2.3 8.8,2.4 9.3,1.9 			"/>
		</g>
	</g>
</g>
</svg>
